<?xml version="1.0" standalone="no"?>
<!DOCTYPE svg PUBLIC "-//W3C//DTD SVG 20010904//EN"
 "http://www.w3.org/TR/2001/REC-SVG-20010904/DTD/svg10.dtd">
<svg version="1.0" xmlns="http://www.w3.org/2000/svg"
 width="2251.000000pt" height="2250.000000pt" viewBox="0 0 2251.000000 2250.000000"
 preserveAspectRatio="xMidYMid meet">

<g transform="translate(0.000000,2250.000000) scale(0.100000,-0.100000)"
fill="#000000" stroke="none">
<path d="M13505 19618 c-49 -58 -153 -289 -224 -498 -111 -329 -193 -504 -408
-878 -245 -426 -460 -739 -1133 -1647 -651 -878 -933 -1283 -1177 -1690 -437
-726 -797 -1583 -1078 -2565 -127 -444 -274 -1050 -341 -1408 -15 -79 -32
-145 -38 -147 -6 -1 -121 -31 -256 -65 -771 -197 -1192 -339 -1565 -528 -355
-180 -637 -401 -848 -662 -345 -428 -583 -999 -796 -1910 -61 -262 -77 -348
-91 -516 -14 -158 -7 -208 32 -212 21 -3 32 5 56 41 68 98 171 324 238 520 40
117 87 182 259 352 397 395 935 645 2015 935 178 48 934 230 938 226 1 -2 18
-63 37 -137 89 -350 231 -654 428 -919 92 -122 295 -326 418 -418 181 -134
458 -287 697 -383 64 -26 81 -37 76 -49 -16 -37 -16 -120 1 -169 26 -81 84
-124 266 -200 187 -78 239 -84 327 -36 30 16 62 41 73 57 26 36 124 250 209
458 37 91 186 440 331 775 260 603 263 611 263 680 0 82 -23 136 -78 182 -19
15 -102 57 -183 93 -176 76 -247 87 -327 51 l-47 -21 -112 42 c-163 59 -354
141 -486 208 -121 60 -261 140 -248 140 12 0 714 128 995 181 1181 222 1864
530 2392 1076 218 225 355 422 500 718 265 541 496 1317 600 2018 94 633 3
1064 -309 1472 -270 352 -764 665 -1201 760 -103 22 -400 31 -527 15 -126 -15
-333 -68 -454 -115 -716 -281 -1236 -850 -1690 -1850 -308 -679 -666 -1699
-831 -2365 l-50 -205 -232 -51 c-201 -44 -232 -48 -237 -35 -19 47 -34 279
-33 501 1 383 56 746 142 950 128 300 343 684 620 1105 201 306 353 518 887
1235 531 713 768 1051 1002 1430 597 968 1015 1978 1242 3005 67 304 76 421
36 465 -26 28 -49 25 -80 -12z m-482 -6013 c285 -37 550 -142 825 -325 328
-219 559 -479 679 -764 l34 -80 -67 -60 c-433 -392 -957 -641 -1742 -827 -92
-21 -520 -109 -952 -194 -432 -86 -891 -177 -1020 -203 l-236 -48 23 85 c36
134 81 365 94 485 10 99 17 125 75 263 293 703 729 1210 1276 1482 335 167
676 230 1011 186z"/>
<path d="M11950 7613 c-189 -439 -345 -807 -347 -818 -3 -17 21 -32 154 -97
410 -199 793 -518 1008 -838 61 -92 126 -219 147 -289 7 -24 18 -45 24 -48 6
-2 64 16 130 40 529 196 1114 344 1604 408 187 24 448 34 548 22 39 -5 72 -7
72 -3 0 3 -438 194 -973 423 l-973 418 -62 -32 c-52 -27 -73 -32 -135 -33 -63
0 -82 4 -140 32 -96 48 -156 126 -175 230 -18 102 21 216 98 286 177 160 451
82 518 -146 12 -42 23 -60 42 -69 146 -67 1913 -820 1920 -817 5 2 -18 26 -51
53 -72 59 -211 215 -316 352 -105 137 -303 437 -417 633 -114 194 -347 657
-430 853 -32 75 -61 137 -64 137 -2 0 -44 -16 -93 -35 -174 -70 -374 -105
-598 -105 -320 0 -700 73 -1015 194 -65 25 -121 46 -126 46 -4 0 -162 -359
-350 -797z"/>
</g>
</svg>
