<?xml version="1.0" encoding="UTF-8"?>
<svg version="1.1" xmlns="http://www.w3.org/2000/svg" width="2251" height="2250">
<path d="M0 0 C4.54951935 0.00421804 9.09902333 -0.00325833 13.64853877 -0.00915251 C21.60171374 -0.01786898 29.55486295 -0.01924294 37.50804151 -0.01564924 C49.33561671 -0.0103191 61.16316718 -0.01646071 72.9907397 -0.02473217 C95.34970029 -0.03993982 117.70864952 -0.04168053 140.06761419 -0.03920914 C157.34034403 -0.03737343 174.61307016 -0.03914191 191.88579953 -0.04343358 C194.37114444 -0.044036 196.85648936 -0.04463719 199.34183427 -0.04523719 C203.08746371 -0.04614448 206.83309316 -0.04705315 210.5787226 -0.04796954 C245.3866294 -0.05639439 280.19453481 -0.06073805 315.00244248 -0.05656282 C316.31354562 -0.05640644 317.62464875 -0.05625007 318.97548228 -0.05608895 C325.62000388 -0.05528322 332.26452547 -0.05443745 338.90904706 -0.05357565 C340.22856418 -0.05340456 341.54808129 -0.05323347 342.90758377 -0.0530572 C344.90858926 -0.05279766 346.90959476 -0.05253729 348.91060026 -0.0522743 C391.08326989 -0.04674108 433.25591759 -0.05428441 475.42858327 -0.07304517 C522.10962841 -0.09378741 568.79066038 -0.10448357 615.47171039 -0.10046969 C620.45475149 -0.10007437 625.4377926 -0.09971282 630.42083371 -0.0993723 C632.26112376 -0.09923621 632.26112376 -0.09923621 634.13859139 -0.09909736 C652.61425299 -0.09793411 671.08990124 -0.10455898 689.56555951 -0.11518422 C710.59355962 -0.12726531 731.62153044 -0.12876185 752.649531 -0.11639406 C764.39840969 -0.10979206 776.14721823 -0.1113347 787.89609123 -0.12498257 C795.76759447 -0.13328326 803.63904568 -0.13045737 811.51054478 -0.1190073 C815.97977415 -0.11280595 820.44886763 -0.11100453 824.91808867 -0.12287064 C852.54538175 -0.1912596 879.85897583 1.14808798 907.13048757 5.95063647 C907.8597646 6.07596759 908.58904164 6.2012987 909.34041799 6.33042773 C996.912462 21.44460396 1079.14407899 58.96770265 1147.25548757 116.26313647 C1147.78706471 116.70979663 1148.31864186 117.15645678 1148.86632741 117.61665209 C1161.47950834 128.24206185 1173.44648509 139.37158085 1185.13048757 151.01313647 C1186.46865529 152.34429492 1186.46865529 152.34429492 1187.83385671 153.70234545 C1192.84909812 158.72982491 1197.64366946 163.86527715 1202.25548757 169.26313647 C1203.3123422 170.46648901 1204.3709152 171.66833473 1205.43126882 172.86860522 C1211.85679254 180.18838724 1218.05527824 187.60542384 1223.87755788 195.41694506 C1224.85972716 196.73288485 1225.84656894 198.04534267 1226.83654225 199.35542163 C1279.70594462 269.32424697 1313.12907553 352.14521176 1324.44298757 439.01313647 C1324.67550221 440.75627124 1324.67550221 440.75627124 1324.91271413 442.53462084 C1328.06866056 468.23598851 1328.55634478 494.01310094 1328.51242267 519.86772382 C1328.50725412 524.25452504 1328.51390591 528.64131329 1328.51890934 533.02811255 C1328.52606748 540.68319107 1328.52595431 548.33824128 1328.52081502 555.99332102 C1328.51319327 567.37750011 1328.51714674 578.76165568 1328.52323163 590.14583465 C1328.53372136 610.48816273 1328.53286703 630.8304782 1328.52707381 651.17280746 C1328.522029 668.97608704 1328.52073566 686.77936201 1328.5231191 704.58264216 C1328.52334825 706.35878761 1328.52334825 706.35878761 1328.52358204 708.17081478 C1328.52420478 712.97829207 1328.52484159 717.78576935 1328.52550156 722.59324664 C1328.53161025 767.62890369 1328.52608751 812.66455273 1328.51530777 857.70020854 C1328.50581822 897.64933008 1328.50666638 937.59843887 1328.51622975 977.5475603 C1328.52695578 1022.5029677 1328.53117629 1067.45836804 1328.52500523 1112.41377654 C1328.52436386 1117.21245603 1328.52373817 1122.01113552 1328.5231191 1126.80981501 C1328.52296094 1127.99124223 1328.52280279 1129.17266944 1328.52263984 1130.38989748 C1328.52037175 1148.17460028 1328.52301264 1165.95929795 1328.5280782 1183.74400004 C1328.53381384 1203.98128952 1328.53233074 1224.21856448 1328.52151672 1244.45585217 C1328.51567409 1255.76040033 1328.51521714 1267.06491701 1328.52280906 1278.36946432 C1328.52733217 1285.94450622 1328.52443442 1293.51952316 1328.51579953 1301.0945614 C1328.51109551 1305.39430307 1328.50930084 1309.69398275 1328.51661149 1313.99372222 C1328.65286217 1400.76407242 1311.36001319 1482.35806941 1272.25548757 1560.26313647 C1271.82494069 1561.12149096 1271.39439382 1561.97984545 1270.95080007 1562.86421069 C1262.27375467 1580.01811796 1252.20118611 1596.46796548 1241.25548757 1612.26313647 C1240.8618401 1612.83161303 1240.46819264 1613.40008959 1240.06261647 1613.98579272 C1230.71011998 1627.41972632 1220.83828761 1640.51784347 1210.13830007 1652.90913256 C1208.29394617 1655.04658374 1206.46942789 1657.19805162 1204.66417897 1659.36860522 C1197.29434044 1668.18161152 1189.42861712 1676.40046082 1181.28258718 1684.49677905 C1179.18459249 1686.58398839 1177.09759641 1688.68177237 1175.01134694 1690.78071459 C1168.43897856 1697.35915093 1161.8666094 1703.70738888 1154.53478444 1709.44306811 C1152.18234466 1711.32154268 1150.00183927 1713.31739774 1147.81798757 1715.38813647 C1140.60556439 1721.94904123 1132.6652351 1727.60823234 1124.81749928 1733.37739428 C1122.43694637 1735.12957559 1120.06624778 1736.89429877 1117.69689382 1738.66157397 C1034.89909865 1799.96600041 930.27970502 1832.04279498 808.98962698 1832.39780539 C804.60405754 1832.39615553 800.2184927 1832.40032694 795.83292479 1832.40371456 C788.16298327 1832.40884321 780.49304805 1832.41029019 772.82310498 1832.40925845 C761.4166962 1832.40772787 750.01029435 1832.41190776 738.60388692 1832.41713307 C717.041119 1832.42678558 695.47835346 1832.42961654 673.91558364 1832.43019013 C657.25728636 1832.43065036 640.59899 1832.43271226 623.94069303 1832.43589076 C619.13885854 1832.43678836 614.33702406 1832.43767817 609.53518957 1832.43856564 C608.34130261 1832.43878668 607.14741564 1832.43900773 605.91735028 1832.43923548 C572.35155372 1832.44538662 538.78575748 1832.44933636 505.21996034 1832.4488922 C503.95538547 1832.44887662 502.69081059 1832.44886104 501.38791527 1832.44884499 C494.97910281 1832.44876189 488.57029035 1832.44866285 482.16147789 1832.44856028 C480.252396 1832.44853037 480.252396 1832.44853037 478.3047468 1832.44849984 C475.73099522 1832.44845941 473.15724364 1832.44841761 470.58349205 1832.44837445 C430.55561518 1832.44776194 390.52774678 1832.45526518 350.49987233 1832.46894702 C305.48595819 1832.48432693 260.47204962 1832.49291208 215.45813269 1832.49198379 C210.6528403 1832.49190917 205.84754791 1832.49186046 201.04225553 1832.49182948 C199.85914938 1832.49181782 198.67604324 1832.49180617 197.4570854 1832.49179416 C178.46595316 1832.49176346 159.47482832 1832.49813343 140.48369828 1832.50676174 C121.37710077 1832.51526261 102.27051402 1832.51620918 83.16391566 1832.50965242 C71.83255082 1832.50597293 60.50121877 1832.50774094 49.16985744 1832.51759476 C41.577829 1832.52363548 33.98582406 1832.52225434 26.39379665 1832.51512426 C22.08333696 1832.51127692 17.77294025 1832.51036632 13.46248522 1832.51858161 C-12.56826966 1832.56497205 -38.5813005 1831.95341355 -64.43201243 1828.57563647 C-65.72413646 1828.40902514 -67.01626048 1828.24241381 -68.34753978 1828.07075366 C-155.50219025 1816.44934863 -238.02044964 1781.72835363 -307.74451243 1728.26313647 C-308.34505443 1727.80439135 -308.94559642 1727.34564624 -309.56433665 1726.87299975 C-328.30270347 1712.51811847 -345.53371069 1696.53468356 -362.24451243 1679.88813647 C-363.0813557 1679.05596606 -363.91819896 1678.22379565 -364.78040111 1677.36640795 C-369.64169465 1672.49243065 -374.27294951 1667.49522593 -378.74451243 1662.26313647 C-379.69386114 1661.18007668 -380.64432922 1660.09799674 -381.59607493 1659.01704272 C-388.78058582 1650.78035855 -395.51205627 1642.25833472 -402.0604304 1633.50923022 C-403.75964453 1631.24295449 -405.47249711 1628.98743212 -407.18591868 1626.73188647 C-421.37593584 1607.91853553 -433.45572852 1587.92606284 -444.74451243 1567.26313647 C-445.22517161 1566.38834643 -445.70583079 1565.51355639 -446.2010554 1564.61225756 C-472.28750779 1516.89665134 -488.89118643 1464.61002084 -498.05701243 1411.13813647 C-498.23301478 1410.13797 -498.23301478 1410.13797 -498.41257274 1409.11759814 C-503.18211685 1381.67986155 -504.1981005 1354.18375682 -504.1299151 1326.41202694 C-504.12216334 1321.85988212 -504.13213953 1317.30776548 -504.13964509 1312.75562491 C-504.15038301 1304.81182204 -504.15021211 1296.86808055 -504.14250361 1288.924275 C-504.13107173 1277.11084379 -504.13700078 1265.29746356 -504.14612854 1253.48403259 C-504.16186335 1232.37535649 -504.16058162 1211.26670775 -504.1518918 1190.15802909 C-504.14432509 1171.68534674 -504.14238434 1153.21267438 -504.14595973 1134.73999079 C-504.14618889 1133.51145435 -504.14641804 1132.2829179 -504.14665414 1131.01715308 C-504.14758826 1126.02929355 -504.14854347 1121.04143403 -504.14953343 1116.05357452 C-504.1586964 1069.32881795 -504.15041224 1022.60407874 -504.13424274 975.87932485 C-504.1200066 934.42627938 -504.12128219 892.97326179 -504.13562572 851.52021655 C-504.15171189 804.87573743 -504.15804728 758.23127364 -504.14878892 711.58679213 C-504.14782687 706.60868355 -504.14688834 701.63057497 -504.14595973 696.65246638 C-504.1457225 695.42685743 -504.14548527 694.20124847 -504.14524085 692.93849986 C-504.1418377 674.48307805 -504.14580188 656.02766737 -504.15339839 637.57224711 C-504.16199849 616.57481058 -504.1597842 595.57740552 -504.14355616 574.57997288 C-504.13478698 562.84861401 -504.1341145 551.11732342 -504.14549468 539.38596641 C-504.15227285 531.52773354 -504.14794414 523.66955486 -504.13498037 515.81132995 C-504.1279156 511.34902125 -504.12525139 506.88684713 -504.13619832 502.42454316 C-504.19677265 475.79180869 -502.78201892 449.60252675 -498.49451243 423.26313647 C-498.39157878 422.62156604 -498.28864512 421.9799956 -498.18259227 421.31898364 C-490.62368641 374.50230622 -476.46501045 328.92201064 -455.74451243 286.26313647 C-455.38405833 285.51725268 -455.02360423 284.77136889 -454.65222728 284.00288256 C-452.73877939 280.06160085 -450.77674429 276.14835749 -448.7689265 272.25434741 C-448.05510448 270.86685161 -447.34651378 269.47665729 -446.64197337 268.08442553 C-430.43825009 236.07419619 -409.64904235 206.79655475 -386.74451243 179.26313647 C-386.2498347 178.66791186 -385.75515697 178.07268725 -385.245489 177.45942553 C-371.2762991 160.72812461 -356.30935832 143.98387107 -339.64294993 129.88423022 C-337.4155121 127.98219997 -335.27428272 125.99705927 -333.11951243 124.01313647 C-328.13796248 119.51833339 -322.92228067 115.39255241 -317.61804759 111.29121264 C-315.15991011 109.38099695 -312.72738363 107.44592131 -310.32044017 105.47163256 C-301.38671103 98.15653533 -292.13544378 91.54691682 -282.49451243 85.20063647 C-281.77395671 84.72346179 -281.05340098 84.2462871 -280.31101024 83.75465258 C-270.07842605 76.98157356 -259.78827932 70.39525718 -249.01404368 64.50825366 C-246.51608969 63.13781848 -244.03687527 61.7363376 -241.55701243 60.33344897 C-184.97097775 28.57447996 -121.09821811 9.46880251 -56.74451243 2.26313647 C-55.66584443 2.13813677 -55.66584443 2.13813677 -54.56538515 2.01061183 C-36.38962277 -0.03382539 -18.25998423 -0.02592602 0 0 Z " fill="#EC6923" transform="translate(712.7445124341175,199.73686353024095)"/>
<path d="M0 0 C1.32 0 2.64 0 4 0 C7.95602376 4.10254315 8.1452285 8.0336657 8.1184082 13.55615234 C7.88374156 18.39947838 7.04154825 23.15916284 6.25 27.9375 C5.97494629 29.61489258 5.97494629 29.61489258 5.69433594 31.32617188 C4.33840172 39.39665513 2.68996773 47.3230631 0.68066406 55.25488281 C-0.18187197 58.73348939 -1.00028015 62.22213677 -1.8203125 65.7109375 C-8.13612703 92.47466226 -8.13612703 92.47466226 -12.48046875 105.34375 C-13.88921068 109.53776749 -15.11181414 113.78286857 -16.34375 118.03125 C-18.79114856 126.42855453 -21.47138697 134.72820031 -24.3125 143 C-24.56366577 143.732117 -24.81483154 144.46423401 -25.0736084 145.21853638 C-49.3552312 215.70608425 -81.86941726 283.14548744 -120.9140625 346.60888672 C-122.2500296 348.78077144 -123.58358985 350.95413963 -124.9140625 353.12939453 C-146.79547427 388.87873296 -171.34430488 422.92760426 -196.24267578 456.61767578 C-197.9775979 458.9696305 -199.70655144 461.32584839 -201.43359375 463.68359375 C-208.20377331 472.91810712 -215.07715794 482.06461885 -222.03417969 491.15917969 C-228.2160218 499.25323976 -234.2636743 507.44137056 -240.28222656 515.65722656 C-243.18070845 519.61030107 -246.0910638 523.5546161 -249 527.5 C-250.16539237 529.08201078 -251.33075696 530.66404203 -252.49609375 532.24609375 C-254.84012017 535.42750611 -257.18670882 538.60700616 -259.53515625 541.78515625 C-287.78195239 580.02577044 -314.85738515 619.01701932 -339 660 C-339.47904785 660.81098145 -339.9580957 661.62196289 -340.45166016 662.45751953 C-351.62205844 681.44530653 -362.08041949 700.99402696 -371.1875 721.0625 C-371.52547607 721.8037915 -371.86345215 722.54508301 -372.21166992 723.30883789 C-377.08710177 734.34048263 -379.86525478 745.33108829 -381.75537109 757.1875 C-382.12035375 759.47093176 -382.50225119 761.75102755 -382.88671875 764.03125 C-385.98431449 782.7226297 -387.33480204 801.09776748 -387.26074219 820.04711914 C-387.24995388 823.32652009 -387.26074468 826.60538038 -387.2734375 829.88476562 C-387.27928629 840.05278652 -387.10132137 849.9620572 -385.44091797 860.00683594 C-384.80165123 864.34648719 -384.81473994 868.62580418 -385 873 C-384.00742187 872.74605469 -383.01484375 872.49210937 -381.9921875 872.23046875 C-374.1780721 870.24545481 -366.35899786 868.37230826 -358.46484375 866.7265625 C-356.03676276 866.21740459 -353.61251654 865.68977293 -351.19140625 865.1484375 C-349.95261719 864.87257813 -348.71382812 864.59671875 -347.4375 864.3125 C-346.32246094 864.06113281 -345.20742188 863.80976562 -344.05859375 863.55078125 C-341.28542491 863.05139836 -338.80755829 862.89020722 -336 863 C-335.83564453 861.15148438 -335.83564453 861.15148438 -335.66796875 859.265625 C-335.00319238 853.32092319 -333.68011465 847.56701328 -332.3125 841.75 C-331.91212524 840.03526489 -331.91212524 840.03526489 -331.50366211 838.28588867 C-329.0062465 827.75158877 -326.11472535 817.36616484 -323 807 C-322.61207275 805.69409912 -322.61207275 805.69409912 -322.21630859 804.36181641 C-296.10535304 716.51082771 -265.9744809 625.7672606 -218.66064453 546.77441406 C-217.13660984 544.22823202 -215.62736868 541.67389795 -214.12109375 539.1171875 C-205.44319966 524.51075373 -195.69488689 510.74741914 -184.53125 497.93359375 C-182.18904126 495.21908948 -179.96700917 492.44175979 -177.75 489.625 C-173.90182005 484.89624554 -169.74147388 480.55928219 -165.4375 476.25 C-164.82422852 475.63592285 -164.21095703 475.0218457 -163.57910156 474.38916016 C-147.8229613 458.82189212 -130.08577319 446.14810347 -111 435 C-110.34499512 434.61118652 -109.68999023 434.22237305 -109.01513672 433.82177734 C-69.13976018 410.34213469 -18.92590889 400.62966386 26.22460938 412.21899414 C51.93800301 419.45484444 76.82239916 431.72210116 98 448 C99.34964844 449.03253906 99.34964844 449.03253906 100.7265625 450.0859375 C106.72968684 454.78807514 112.44604557 459.77682125 118 465 C118.55848633 465.5244873 119.11697266 466.04897461 119.69238281 466.58935547 C150.90745926 496.15048623 170.82864878 534.21219566 172.10498047 577.56591797 C172.18645714 581.60685702 172.22939931 585.64589781 172.25 589.6875 C172.25942627 590.93821289 172.26885254 592.18892578 172.27856445 593.47753906 C172.20926008 614.08055237 169.62346435 634.16951263 165.75 654.375 C165.34374355 656.53729117 164.93782238 658.69964536 164.53222656 660.86206055 C161.9007364 674.78423641 159.08824691 688.64320281 155.64990234 702.39160156 C155.0041277 704.98343339 154.38408583 707.58029438 153.76953125 710.1796875 C150.71658019 722.95410524 147.00028522 735.49258081 143 748 C142.79225952 748.65091614 142.58451904 749.30183228 142.3704834 749.97247314 C132.73795263 780.10974722 121.81448501 809.48781732 108 838 C107.39406006 839.25296875 107.39406006 839.25296875 106.77587891 840.53125 C95.86374389 862.8107502 81.52421413 883.17784272 64.5625 901.25 C62.25457931 903.72679294 60.02673791 906.25228742 57.8125 908.8125 C54.786394 912.23144734 51.59905487 915.25492452 48.11328125 918.19921875 C45.78954831 920.17933129 43.55646028 922.24254634 41.3125 924.3125 C-27.45761227 986.01861282 -123.76986574 1006.52765396 -212.265625 1021.02734375 C-214.36464942 1021.37199357 -216.46360836 1021.71704244 -218.5625 1022.0625 C-220.09148926 1022.31410889 -220.09148926 1022.31410889 -221.65136719 1022.57080078 C-227.89581307 1023.61154176 -234.070084 1024.8244116 -240.24609375 1026.21875 C-246.29245058 1027.47709689 -252.38619578 1028.47058274 -258.48071289 1029.46679688 C-265.42000656 1030.62988113 -272.19672929 1032.20848698 -279 1034 C-256.31595504 1046.70935793 -233.31005925 1057.7465203 -209 1067 C-207.99630371 1067.38833008 -206.99260742 1067.77666016 -205.95849609 1068.17675781 C-204.98477051 1068.54510742 -204.01104492 1068.91345703 -203.0078125 1069.29296875 C-202.13785645 1069.62449951 -201.26790039 1069.95603027 -200.37158203 1070.29760742 C-196.06548753 1071.57294548 -192.63781659 1070.70525258 -188.61645508 1068.97363281 C-179.12065611 1065.44006499 -170.50438176 1069.28952518 -161.8125 1073.25 C-160.68908203 1073.74113281 -159.56566406 1074.23226563 -158.40820312 1074.73828125 C-155.25612773 1076.12645303 -152.12517409 1077.55244037 -149 1079 C-147.79005371 1079.55010742 -147.79005371 1079.55010742 -146.55566406 1080.11132812 C-142.70305758 1081.92997192 -139.8268632 1083.69054077 -137.125 1087 C-136.57070312 1087.66 -136.01640625 1088.32 -135.4453125 1089 C-130.99766286 1095.15458544 -130.89159547 1101.60347254 -132 1109 C-132.80670589 1111.70333181 -133.89327444 1114.24316048 -135.03515625 1116.8203125 C-135.34803589 1117.55228348 -135.66091553 1118.28425446 -135.98327637 1119.03840637 C-136.6461981 1120.58602076 -137.3142299 1122.13145522 -137.98709106 1123.67477417 C-138.96729043 1125.92491217 -139.93249845 1128.1808076 -140.89233398 1130.43969727 C-142.55419526 1134.34676292 -144.22879957 1138.24821481 -145.9072876 1142.14816284 C-147.85547228 1146.67551856 -149.79877285 1151.20497009 -151.7421875 1155.734375 C-152.36491043 1157.18552956 -152.36491043 1157.18552956 -153.00021362 1158.66600037 C-158.39655229 1171.24736464 -163.76073504 1183.8424359 -169.125 1196.4375 C-169.6096875 1197.5750473 -170.094375 1198.7125946 -170.59375 1199.88461304 C-181.32926186 1225.06815172 -181.32926186 1225.06815172 -191.85253906 1250.34082031 C-196.00763012 1260.42266253 -200.33803623 1270.37698074 -205.12255859 1280.17626953 C-205.96955746 1281.93672628 -206.77661703 1283.71622775 -207.58203125 1285.49609375 C-210.83390327 1292.50606589 -214.06169009 1297.69132108 -221.21630859 1301.03613281 C-231.77362755 1304.69165774 -241.85510327 1301.23582676 -251.48901367 1296.77539062 C-253.44877782 1295.86978855 -255.42348399 1295.00687927 -257.40429688 1294.1484375 C-273.84012313 1286.88522558 -273.84012313 1286.88522558 -277.375 1278.875 C-277.67148438 1278.23304687 -277.96796875 1277.59109375 -278.2734375 1276.9296875 C-280.87880387 1270.01005854 -280.25292423 1263.89958045 -278 1257 C-279.25039062 1256.60941406 -280.50078125 1256.21882813 -281.7890625 1255.81640625 C-287.49922758 1253.90893018 -292.91640349 1251.46511074 -298.375 1248.9375 C-299.42647217 1248.45144287 -300.47794434 1247.96538574 -301.5612793 1247.46459961 C-328.73084426 1234.7923277 -353.28722741 1219.77376832 -375 1199 C-375.55155762 1198.48099121 -376.10311523 1197.96198242 -376.67138672 1197.42724609 C-386.23905547 1188.39396335 -394.33262774 1178.68174198 -402 1168 C-402.43763672 1167.40171387 -402.87527344 1166.80342773 -403.32617188 1166.18701172 C-421.00792713 1141.86425401 -445.02382567 1099.36929787 -443 1068 C-454.71444228 1070.4788994 -454.71444228 1070.4788994 -466.3125 1073.4375 C-477.56133403 1076.60546982 -489.01215421 1079.08565592 -500.3984375 1081.703125 C-512.5310328 1084.49795226 -524.62902262 1087.31677777 -536.59765625 1090.7578125 C-540.8484686 1091.97513068 -545.12555008 1093.07823364 -549.40844727 1094.17651367 C-561.0370498 1097.15950718 -572.54432074 1100.41126687 -584 1104 C-585.12374023 1104.35046387 -586.24748047 1104.70092773 -587.40527344 1105.06201172 C-620.91085621 1115.55639762 -654.23095598 1126.85800771 -685 1144 C-685.72670898 1144.40331543 -686.45341797 1144.80663086 -687.20214844 1145.22216797 C-703.30595511 1154.23289064 -718.2441606 1164.69593072 -732 1177 C-732.84353027 1177.75095947 -732.84353027 1177.75095947 -733.70410156 1178.51708984 C-740.21121106 1184.3362632 -746.49317912 1190.20619177 -752 1197 C-752.79019531 1197.88300781 -753.58039062 1198.76601562 -754.39453125 1199.67578125 C-761.0311234 1207.3506749 -764.14783109 1215.08123633 -767.2265625 1224.671875 C-772.85366343 1242.08573126 -780.73269376 1262.19928048 -793 1276 C-796.875 1275.125 -796.875 1275.125 -798 1274 C-799.71138305 1241.8786566 -792.19112814 1210.12046755 -783.265625 1179.46875 C-781.92528643 1174.83143712 -780.75347241 1170.15437192 -779.56958008 1165.47509766 C-771.49192843 1133.65187775 -761.19829624 1102.64996846 -747 1073 C-746.66403809 1072.29633301 -746.32807617 1071.59266602 -745.98193359 1070.86767578 C-736.04369506 1050.20137283 -724.39905936 1030.87109504 -710 1013 C-709.57638184 1012.47196777 -709.15276367 1011.94393555 -708.71630859 1011.39990234 C-698.4144142 998.64941929 -687.00847623 987.00253352 -674 977 C-673.15477783 976.33218506 -673.15477783 976.33218506 -672.29248047 975.65087891 C-662.18140556 967.66304869 -651.6039825 960.82757178 -640.43896484 954.40527344 C-638.1749949 953.10082789 -635.92488666 951.77515512 -633.67578125 950.4453125 C-595.76139409 928.35709042 -552.12148468 915.36118816 -510 904 C-508.42853467 903.57508252 -506.85708375 903.15011171 -505.28564453 902.72509766 C-494.75864273 899.88010732 -484.22558441 897.05828639 -473.68847656 894.25097656 C-470.78836532 893.47803457 -467.88910269 892.70212015 -464.99121094 891.92089844 C-461.74554316 891.04607216 -458.49814359 890.17807821 -455.25 889.3125 C-454.3532959 889.06878662 -453.4565918 888.82507324 -452.53271484 888.57397461 C-451.7227002 888.3600708 -450.91268555 888.14616699 -450.078125 887.92578125 C-449.40168945 887.74442627 -448.72525391 887.56307129 -448.02832031 887.3762207 C-445.65574022 886.93614536 -443.40859849 886.97613578 -441 887 C-440.92659142 886.09610535 -440.92659142 886.09610535 -440.85169983 885.1739502 C-440.29173991 878.91459359 -439.29473952 872.86366255 -437.99609375 866.71875 C-437.79715012 865.75895737 -437.59820648 864.79916473 -437.39323425 863.81028748 C-436.74732559 860.70556829 -436.09302924 857.60270107 -435.4375 854.5 C-435.21479431 853.43830597 -434.99208862 852.37661194 -434.76263428 851.28274536 C-431.86317926 837.46687726 -428.86700231 823.67725303 -425.625 809.9375 C-425.46836884 809.27250488 -425.31173767 808.60750977 -425.15036011 807.92236328 C-423.26342035 799.94454531 -421.23155689 792.01322476 -419.09863281 784.09790039 C-418.08508648 780.33289561 -417.09859424 776.56113099 -416.11534119 772.78811646 C-401.35462347 716.17088665 -384.14737892 660.20256699 -362 606 C-361.50806152 604.79537109 -361.01612305 603.59074219 -360.50927734 602.34960938 C-354.08063381 586.71437836 -347.18305302 571.30194385 -340 556 C-339.52981445 554.99646484 -339.05962891 553.99292969 -338.57519531 552.95898438 C-326.83829962 527.99126179 -314.14922432 503.68556134 -300 480 C-298.94603843 478.21909085 -297.89263731 476.43784988 -296.83984375 474.65625 C-290.48127864 463.93214843 -283.87243473 453.40140758 -277 443 C-276.11852295 441.66243652 -276.11852295 441.66243652 -275.21923828 440.29785156 C-265.37109736 425.37275013 -255.27694302 410.63260589 -245 396 C-244.18039795 394.83065918 -244.18039795 394.83065918 -243.34423828 393.63769531 C-231.7137135 377.04971854 -219.79786683 360.67442394 -207.75732422 344.38232422 C-206.0224021 342.0303695 -204.29344856 339.67415161 -202.56640625 337.31640625 C-196.37719457 328.87473313 -190.11399446 320.49839154 -183.75 312.1875 C-178.98656428 305.96617959 -174.29946496 299.71344894 -169.78930664 293.30639648 C-166.1889151 288.21161523 -162.44306425 283.23109901 -158.6875 278.25 C-152.20765624 269.64897731 -145.86510901 260.95895079 -139.58837891 252.20898438 C-137.99589876 249.99429634 -136.39578317 247.78534316 -134.79296875 245.578125 C-131.51443086 241.06224355 -128.25117795 236.53561807 -125 232 C-124.23478027 230.93265625 -124.23478027 230.93265625 -123.45410156 229.84375 C-106.11027816 205.56019765 -89.21202804 180.67990087 -74 155 C-73.40960937 154.00419922 -72.81921875 153.00839844 -72.2109375 151.98242188 C-63.78690695 137.7083701 -55.78411378 123.26006688 -48.27099609 108.48632812 C-47.14209098 106.27795899 -45.99267845 104.08241447 -44.83203125 101.890625 C-36.33238813 85.66838947 -30.02196428 68.45255537 -24.375 51.0625 C-19.91028645 37.33413919 -14.45052225 24.46326716 -7.75 11.6875 C-7.43281006 11.08260742 -7.11562012 10.47771484 -6.78881836 9.85449219 C-4.84413312 6.26037468 -2.84945111 2.94332837 0 0 Z " fill="#18234D" transform="translate(1353,285)"/>
<path d="M0 0 C0.74617584 0.00248749 1.49235168 0.00497498 2.26113892 0.00753784 C13.47364345 0.06524078 24.30225994 0.42725565 35.1875 3.3125 C36.06873535 3.54356445 36.9499707 3.77462891 37.85791016 4.01269531 C51.18413094 7.60460768 63.80579313 12.22820428 76.1875 18.3125 C76.80963379 18.6120459 77.43176758 18.9115918 78.07275391 19.22021484 C93.80863287 26.86673014 108.92502854 36.92906074 122.1875 48.3125 C123.2789548 49.21084338 124.37149107 50.1078737 125.46484375 51.00390625 C144.66194136 66.88506966 167.44266746 91.1910289 173.1875 116.3125 C172.62809708 122.83462953 165.25018983 127.50924787 160.671875 131.51171875 C119.02205742 166.24068341 68.50254048 189.08248644 16.125 202.3125 C14.75641214 202.66131067 13.38784146 203.01018874 12.01928711 203.35913086 C1.78900604 205.95596294 -8.4709483 208.391617 -18.78222656 210.64550781 C-22.23017909 211.40443517 -25.67352868 212.18276466 -29.1171875 212.9609375 C-45.03535706 216.53856362 -60.98835958 219.69955834 -77.05010986 222.56030273 C-77.72708923 222.68091064 -78.4040686 222.80151855 -79.1015625 222.92578125 C-79.76967957 223.04477783 -80.43779663 223.16377441 -81.12615967 223.28637695 C-93.85000382 225.56207764 -106.50076788 228.21695954 -119.15937805 230.82647705 C-123.7934673 231.78153729 -128.42789193 232.73496082 -133.0625 233.6875 C-134.00930634 233.88216858 -134.95611267 234.07683716 -135.93161011 234.27740479 C-150.501569 237.26900939 -165.09326343 240.11470824 -179.71411133 242.84570312 C-190.99628484 244.95468073 -202.25443836 247.16878825 -213.50341797 249.44799805 C-214.64568848 249.67914307 -215.78795898 249.91028809 -216.96484375 250.1484375 C-217.95476318 250.35001465 -218.94468262 250.5515918 -219.96459961 250.75927734 C-222.90637504 251.33073582 -225.8544976 251.8327943 -228.8125 252.3125 C-227.75390057 246.71068386 -226.55658908 241.19420561 -225.06152344 235.69311523 C-221.04575952 220.77540068 -218.33154287 205.21389664 -217.51171875 189.77734375 C-216.95068206 183.29614021 -214.51314811 177.82650156 -211.875 171.9375 C-211.37991943 170.80481689 -210.88483887 169.67213379 -210.37475586 168.50512695 C-208.87478493 165.0978417 -207.34863296 161.70361456 -205.8125 158.3125 C-205.38195313 157.35359863 -204.95140625 156.39469727 -204.5078125 155.40673828 C-190.74885859 124.94752542 -172.7459004 97.47395393 -150.8125 72.3125 C-150.37373535 71.80912109 -149.9349707 71.30574219 -149.48291016 70.78710938 C-144.87016716 65.52820327 -140.20072966 60.52664896 -134.8359375 56.03125 C-133.43324128 54.83977058 -132.06499577 53.60699039 -130.7265625 52.34375 C-106.46087236 29.48596679 -74.65258297 12.54088606 -42.375 4.625 C-41.55322266 4.42221436 -40.73144531 4.21942871 -39.88476562 4.01049805 C-26.62966221 0.91755449 -13.55128559 -0.07266156 0 0 Z " fill="#EC6923" transform="translate(1282.8125,887.6875)"/>
<path d="M0 0 C4.0609504 0.96801075 7.94763717 2.34762022 11.875 3.75 C13.0187207 4.1531543 13.0187207 4.1531543 14.18554688 4.56445312 C17.59214241 5.76828764 20.98167349 6.99290862 24.3515625 8.296875 C39.57579356 14.11457124 55.76408969 17.33333307 71.75 20.3125 C73.01457031 20.55141968 73.01457031 20.55141968 74.3046875 20.79516602 C86.65489402 22.99105403 99.09096461 23.21116704 111.59960938 23.24023438 C114.10060345 23.24990566 116.60076091 23.28103101 119.1015625 23.3125 C140.35451788 23.45088733 160.46260127 19.44545781 180.05078125 11.171875 C183 10 183 10 185 10 C185.48073975 11.13538208 185.48073975 11.13538208 185.97119141 12.29370117 C200.99556099 47.659696 217.62944487 82.15150121 237.32421875 115.18359375 C238.92616165 117.87590338 240.51191756 120.57708915 242.09375 123.28125 C260.46945182 154.5352637 282.14468753 183.55947863 308 209 C309.33447342 210.33219227 310.6681844 211.66515066 312 213 C305.27675672 210.90557491 298.86689107 208.3209952 292.42578125 205.484375 C290.90176949 204.81930939 290.90176949 204.81930939 289.3469696 204.14080811 C287.15128259 203.18243485 284.95630295 202.22243965 282.76196289 201.26098633 C276.79968796 198.64929976 270.83157421 196.05102255 264.86328125 193.453125 C264.24762424 193.18501007 263.63196724 192.91689514 262.99765396 192.64065552 C249.69782025 186.85003496 236.35312303 181.16649549 223 175.5 C202.4156626 166.76134316 181.88188617 157.91145265 161.3828125 148.97460938 C160.36070679 148.52996338 159.33860107 148.08531738 158.28552246 147.62719727 C156.26875003 146.74786996 154.25381548 145.86431402 152.24084473 144.97631836 C146.78817231 142.58416963 141.31003131 140.32814902 135.74804688 138.20117188 C134.55085022 137.7309259 133.35365356 137.26067993 132.12017822 136.77618408 C129.81157196 135.87311737 127.49183268 134.99786183 125.1605835 134.15496826 C117.56977256 131.14616656 117.56977256 131.14616656 115.89050293 127.76811218 C115.39157121 125.48891841 115.18387838 123.32111533 115 121 C110.76860428 111.53946468 104.62463662 106.59382089 95.13671875 102.87890625 C86.84071717 100.55437281 78.24964387 100.90512928 70.4375 104.5625 C62.32031468 109.21490018 57.10680909 115.96325765 54.4140625 124.95703125 C52.69087504 133.45917314 54.57112958 141.15761731 58 149 C60.06186544 152.00271913 60.06186544 152.00271913 62 154 C62 154.66 62 155.32 62 156 C62.556875 156.27714844 63.11375 156.55429688 63.6875 156.83984375 C65.27500173 157.63627621 66.8581404 158.44144722 68.4375 159.25390625 C69.283125 159.68574219 70.12875 160.11757812 71 160.5625 C71.845625 160.99691406 72.69125 161.43132812 73.5625 161.87890625 C80.18516246 164.92490645 87.99883657 165.15670953 94.97265625 163.140625 C99.29975078 161.59145506 99.29975078 161.59145506 103 159 C109.43284017 159.37177155 114.77589327 161.77248409 120.6328125 164.3203125 C121.67658051 164.76651947 122.72034851 165.21272644 123.79574585 165.67245483 C127.24239269 167.14848599 130.68366492 168.63663145 134.125 170.125 C136.55636669 171.16926502 138.98800029 172.21288928 141.41992188 173.25585938 C159.98569336 181.22538549 178.5134063 189.2838067 197.03930664 197.34545898 C218.69330336 206.76319962 240.42080745 216.00627572 262.15423584 225.23887634 C270.90145455 228.95554545 279.64111248 232.68962092 288.375 236.4375 C290.06798218 237.163927 290.06798218 237.163927 291.79516602 237.9050293 C294.19701414 238.93613665 296.59867197 239.96768215 299 241 C299 241.33 299 241.66 299 242 C297.82945068 241.97905273 296.65890137 241.95810547 295.45288086 241.93652344 C271.21979243 241.54239307 247.94698996 241.95981617 224 246 C222.66709023 246.2127408 221.33391224 246.42380702 220.00048828 246.63330078 C191.03744641 251.19576193 162.1837041 257.40522581 134.23095703 266.31152344 C131.0014436 267.30815595 127.74372719 268.1942383 124.48535156 269.09106445 C106.69006072 274.00923546 89.2742347 280.21218974 72.07421875 286.90625 C69.37036147 287.86823226 66.82569251 288.53346915 64 289 C63.67128906 288.030625 63.34257813 287.06125 63.00390625 286.0625 C52.05364421 254.79516905 29.80536618 228.32000091 4 208 C2.94170826 207.14055291 1.88445331 206.27982791 0.828125 205.41796875 C-18.33752956 189.89984441 -39.6335987 176.75616512 -62.22436523 166.8527832 C-64.18380976 165.9745575 -66.09752174 164.99563029 -68 164 C-69.19853731 160.40438806 -68.75821219 159.78158364 -67.29125977 156.4074707 C-66.8871991 155.46506531 -66.48313843 154.52265991 -66.0668335 153.55169678 C-65.6129425 152.52014465 -65.15905151 151.48859253 -64.69140625 150.42578125 C-64.22277161 149.3398468 -63.75413696 148.25391235 -63.27130127 147.1350708 C-61.98105174 144.14967512 -60.68240852 141.16809783 -59.38031387 138.18785477 C-58.00434984 135.03258828 -56.63960401 131.87248055 -55.27416992 128.71264648 C-53.28116662 124.10273058 -51.28514777 119.4941446 -49.28521442 114.88723087 C-44.2493607 103.28560177 -39.27123628 91.65944721 -34.29684448 80.03134155 C-31.83198782 74.27109027 -29.36306145 68.51258396 -26.89453125 62.75390625 C-25.91746082 60.47412952 -24.94041005 58.19434435 -23.96337891 55.91455078 C-15.97558594 37.27636719 -7.98779297 18.63818359 0 0 Z " fill="#19234D" transform="translate(1229,1409)"/>
</svg>
